<svg width="14" height="14" viewBox="0 0 14 14" fill="none" xmlns="http://www.w3.org/2000/svg">
<path d="M12.8159 10.6925C12.8159 10.9025 12.7692 11.1183 12.6701 11.3283C12.5709 11.5383 12.4426 11.7367 12.2734 11.9233C11.9876 12.2383 11.6726 12.4658 11.3167 12.6117C10.9667 12.7575 10.5876 12.8333 10.1792 12.8333C9.58425 12.8333 8.94841 12.6933 8.27758 12.4075C7.60675 12.1217 6.93591 11.7367 6.27091 11.2525C5.60008 10.7625 4.96425 10.22 4.35758 9.61916C3.75675 9.01249 3.21425 8.37666 2.73008 7.71166C2.25175 7.04666 1.86675 6.38166 1.58675 5.72249C1.30675 5.05749 1.16675 4.42166 1.16675 3.81499C1.16675 3.41832 1.23675 3.03916 1.37675 2.68916C1.51675 2.33332 1.73841 2.00666 2.04758 1.71499C2.42091 1.34749 2.82925 1.16666 3.26091 1.16666C3.42425 1.16666 3.58758 1.20166 3.73341 1.27166C3.88508 1.34166 4.01925 1.44666 4.12425 1.59832L5.47758 3.50582C5.58258 3.65166 5.65841 3.78582 5.71091 3.91416C5.76341 4.03666 5.79258 4.15916 5.79258 4.26999C5.79258 4.40999 5.75175 4.54999 5.67008 4.68416C5.59425 4.81832 5.48341 4.95832 5.34341 5.09832L4.90008 5.55916C4.83591 5.62332 4.80675 5.69916 4.80675 5.79249C4.80675 5.83916 4.81258 5.87999 4.82425 5.92666C4.84175 5.97332 4.85925 6.00832 4.87091 6.04332C4.97591 6.23582 5.15675 6.48666 5.41341 6.78999C5.67591 7.09332 5.95591 7.40249 6.25925 7.71166C6.57425 8.02082 6.87758 8.30666 7.18675 8.56916C7.49008 8.82582 7.74091 9.00082 7.93925 9.10582C7.96841 9.11749 8.00341 9.13499 8.04425 9.15249C8.09091 9.16999 8.13758 9.17582 8.19008 9.17582C8.28925 9.17582 8.36508 9.14082 8.42925 9.07666L8.87258 8.63916C9.01841 8.49332 9.15841 8.38249 9.29258 8.31249C9.42675 8.23082 9.56091 8.18999 9.70675 8.18999C9.81758 8.18999 9.93425 8.21332 10.0626 8.26582C10.1909 8.31832 10.3251 8.39416 10.4709 8.49332L12.4017 9.86416C12.5534 9.96916 12.6584 10.0917 12.7226 10.2375C12.7809 10.3833 12.8159 10.5292 12.8159 10.6925Z" stroke="white" stroke-miterlimit="10"/>
<path d="M10.7917 5.25001C10.7917 4.90001 10.5175 4.36334 10.1092 3.92584C9.73583 3.52334 9.24 3.20834 8.75 3.20834" stroke="white" stroke-linecap="round" stroke-linejoin="round"/>
<path d="M12.8333 5.24999C12.8333 2.99249 11.0075 1.16666 8.75 1.16666" stroke="white" stroke-linecap="round" stroke-linejoin="round"/>
</svg>
