<svg xmlns="http://www.w3.org/2000/svg" width="26" height="26" viewBox="0 0 26 26" fill="none">
  <path d="M2.16699 23.8336H23.8337" stroke="#4D6180" stroke-miterlimit="10" stroke-linecap="round" stroke-linejoin="round"/>
  <path d="M3.19531 23.8331L3.24948 10.8006C3.24948 10.1397 3.56365 9.51145 4.08365 9.09978L11.667 3.1956C12.447 2.58893 13.5411 2.58893 14.332 3.1956L21.9153 9.08894C22.4461 9.5006 22.7495 10.1289 22.7495 10.8006V23.8331" stroke="#4D6180" stroke-miterlimit="10" stroke-linejoin="round"/>
  <path d="M14.0837 18.4164H11.917C11.0178 18.4164 10.292 19.1422 10.292 20.0414V23.8331H15.7087V20.0414C15.7087 19.1422 14.9828 18.4164 14.0837 18.4164Z" stroke="#4D6180" stroke-miterlimit="10" stroke-linejoin="round"/>
  <path d="M10.292 14.8956H8.12533C7.52949 14.8956 7.04199 14.4081 7.04199 13.8122V12.1872C7.04199 11.5914 7.52949 11.1039 8.12533 11.1039H10.292C10.8878 11.1039 11.3753 11.5914 11.3753 12.1872V13.8122C11.3753 14.4081 10.8878 14.8956 10.292 14.8956Z" stroke="#4D6180" stroke-miterlimit="10" stroke-linejoin="round"/>
  <path d="M17.875 14.8956H15.7083C15.1125 14.8956 14.625 14.4081 14.625 13.8122V12.1872C14.625 11.5914 15.1125 11.1039 15.7083 11.1039H17.875C18.4708 11.1039 18.9583 11.5914 18.9583 12.1872V13.8122C18.9583 14.4081 18.4708 14.8956 17.875 14.8956Z" stroke="#4D6180" stroke-miterlimit="10" stroke-linejoin="round"/>
  <path d="M20.5833 7.58359L20.5508 4.33359H15.7842" stroke="#4D6180" stroke-miterlimit="10" stroke-linecap="round" stroke-linejoin="round"/>
</svg>