<svg width="80" height="69" viewBox="0 0 80 69" fill="none" xmlns="http://www.w3.org/2000/svg">
<g id="Logo" clip-path="url(#clip0_214_825)">
<path id="Vector" fill-rule="evenodd" clip-rule="evenodd" d="M71.2373 30.8517C67.4371 28.9748 63.5766 27.7283 59.4146 27.5332C50.4409 27.1124 41.7937 31.9773 32.4967 31.9208C30.8001 31.9111 29.1052 31.7934 27.4572 31.5322C24.0924 30.9969 20.9823 28.7378 17.569 28.8619C12.0638 29.0635 9.05914 33.5059 8.69067 38.303C9.90493 33.235 15.4453 28.5217 21.416 30.7131C25.3887 32.1643 28.5977 33.1753 32.6877 33.1721C41.7619 33.1673 50.3303 29.2715 59.2589 29.0522C63.3639 28.9522 67.2662 29.5037 71.2373 30.8517Z" fill="#0F1115"/>
<path id="Vector_2" fill-rule="evenodd" clip-rule="evenodd" d="M46.5219 16.3522C47.2036 16.3522 47.7579 16.8844 47.7579 17.5423C47.7579 18.2001 47.2036 18.7323 46.5219 18.7323C45.8402 18.7323 45.2842 18.1985 45.2842 17.5423C45.2842 16.886 45.8386 16.3522 46.5219 16.3522ZM44.224 30.6034C44.4753 26.8479 44.7248 23.094 44.9744 19.3402C46.0128 19.2338 47.0528 19.2596 48.0912 19.4498L48.7762 30.4776L46.5085 25.5918L44.224 30.6034ZM42.4839 23.4165L44.7985 19.395L44.5439 22.1685L42.4839 23.4165ZM48.4748 22.291L48.2838 19.4772L50.7509 23.8955L48.4748 22.2894V22.291Z" fill="#0F1115"/>
<path id="Vector_3" fill-rule="evenodd" clip-rule="evenodd" d="M14.71 27.9057L15.0248 21.6396L16.1436 28.017L14.71 27.9074V27.9057ZM20.9521 21.2268H25.2798V26.856H18.6073V25.337H19.2873V25.9917H21.6036V24.0761H19.361V23.5891H21.6036V22.0911H20.9521V21.2268ZM24.151 24.0761H22.1094V25.9917H24.151V24.0761ZM22.1094 23.5891H24.151V22.0911H22.1094V23.5891ZM20.2888 10.3554L22.4276 8.8945L36.0054 18.4259L31.1015 19.9529L30.9977 30.0745L29.0298 30.4922L28.3347 19.9288L20.1883 19.1338C20.3642 18.9806 20.5317 18.821 20.6908 18.6533L30.2172 17.9502L22.2266 11.3455L21.5617 11.9179C21.2318 11.3406 20.8013 10.8117 20.2905 10.3538L20.2888 10.3554Z" fill="#0F1115"/>
<path id="Vector_4" fill-rule="evenodd" clip-rule="evenodd" d="M30.5087 38.8013C30.6293 37.958 31.517 37.2227 32.5336 37.2227C33.5083 37.2227 34.4563 37.9967 34.535 38.8174L30.5087 38.8029V38.8013ZM35.1212 40.1026C34.0024 40.101 34.5383 40.0962 34.0828 40.5283C33.5686 41.0153 32.9523 41.3168 32.1299 41.1749C31.3997 41.0491 30.4333 40.2719 30.5188 39.4624L35.287 39.4576C35.2033 35.7134 30.5271 35.765 29.8421 38.5772C29.4536 40.1703 30.5037 41.3958 31.6928 41.7602C33.309 42.2553 34.8063 41.1959 35.1212 40.1026ZM42.9544 37.2807C44.1636 36.9889 45.2087 37.8467 45.403 38.7513C45.6542 39.9204 44.8721 40.9314 43.9074 41.1556C41.2427 41.7699 40.288 37.9257 42.9544 37.2824V37.2807ZM42.8522 36.6083C41.509 36.8857 40.3349 38.1273 40.6917 39.7833C40.963 41.0427 42.3565 42.1908 44.0212 41.8199C45.2958 41.5361 46.4983 40.2493 46.1098 38.6304C45.8167 37.4033 44.5069 36.2665 42.8505 36.6083H42.8522ZM19.5034 37.2775C22.1027 36.6777 23.0122 40.5186 20.4664 41.1475C17.8001 41.807 16.8119 37.8999 19.5034 37.2775ZM19.4347 36.5954C18.0865 36.8518 16.8773 38.1176 17.2273 39.7608C17.4969 41.0185 18.8469 42.1666 20.5234 41.8312C21.7962 41.5764 22.9854 40.2655 22.6604 38.6852C22.4025 37.4323 21.0694 36.2842 19.4347 36.5938V36.5954ZM11.6886 41.7602H12.3887V37.3259L15.4185 37.3033L15.4252 41.7602H16.1386V36.6583H11.6719L11.6886 41.7602ZM28.9746 40.2719C27.963 40.2639 28.3247 40.1961 27.8005 40.675C27.2713 41.1604 26.4707 41.3313 25.7421 41.1314C23.7608 40.588 23.7441 37.8354 25.7639 37.3017C26.5176 37.1034 27.2378 37.3017 27.7988 37.7403C28.385 38.1999 27.7201 38.2176 28.9829 38.216C28.6999 37.2082 27.2713 36.2939 25.7957 36.5971C22.8447 37.2033 22.7174 41.0943 25.6785 41.8006C27.1054 42.1408 28.6128 41.3732 28.9762 40.2703L28.9746 40.2719ZM47.185 41.7602L47.9002 41.7441C47.9002 40.854 47.7745 40.7895 48.7292 39.7962C48.9955 39.9849 49.8932 41.1281 50.2449 41.5184C50.2935 41.5716 50.3136 41.6054 50.3504 41.6409C50.5464 41.8312 50.9048 41.7715 51.3553 41.749C51.2649 41.5651 51.0053 41.3087 50.8395 41.1169L49.2333 39.2077C49.7475 38.4611 50.8897 37.2259 51.223 36.6809L50.2834 36.6632C50.0892 37.0389 48.0157 39.5544 47.9018 39.6269V36.6793L47.1867 36.6583V41.7602H47.185ZM35.4042 41.757H36.1579L37.4576 37.3194L38.8728 37.3146L38.8879 41.7554L39.5796 41.7602V36.6567H36.92L35.4059 41.7554L35.4042 41.757Z" fill="#0F1115"/>
<path id="Vector_5" fill-rule="evenodd" clip-rule="evenodd" d="M78.4927 49.2438V57.848L79.9984 57.8384L79.98 47.2717L78.0941 47.2814C77.2215 48.4634 72.9306 55.16 72.6609 55.3632L72.6325 47.2717L71.1553 47.2766V57.8497L72.7095 57.8432L78.491 49.2422L78.4927 49.2438Z" fill="#0F1115"/>
<path id="Vector_6" fill-rule="evenodd" clip-rule="evenodd" d="M22.4177 48.2553H25.2883L25.2967 56.8902L19.9222 56.887L22.416 48.2537L22.4177 48.2553ZM17.77 57.8496C19.0044 57.8496 27.0151 57.8964 27.541 57.8254L27.536 56.8983L26.794 56.8838L26.7756 47.283L21.1967 47.2766C20.9187 47.8409 18.5455 56.4984 18.3244 56.8854L17.7784 56.8902L17.77 57.1079V57.848V57.8496Z" fill="#0F1115"/>
<path id="Vector_7" fill-rule="evenodd" clip-rule="evenodd" d="M50.4409 52.8977L55.6999 52.9009V57.8464L57.2072 57.84L57.1854 47.2717L55.7015 47.2878L55.6865 51.9189H50.4241L50.4024 47.2685L48.9185 47.2878V57.8448L50.4241 57.8496L50.4409 52.8977Z" fill="#0F1115"/>
<path id="Vector_8" fill-rule="evenodd" clip-rule="evenodd" d="M32.9673 49.5324C33.0343 49.376 33.1113 49.168 33.2336 49.0632C33.4647 49.5002 35.0022 53.0315 35.0642 53.3395L31.3209 53.3298L32.9673 49.5324ZM30.8637 54.3151L35.5382 54.328L36.9534 57.4707C37.1661 57.9851 37.0254 57.8529 38.7187 57.8303C38.3753 56.9515 37.9282 56.0678 37.5547 55.2019L34.6053 48.5827C34.4194 48.1586 34.2435 47.6668 33.999 47.2733L32.4196 47.2765C32.2488 47.5265 31.9624 48.2408 31.81 48.5875L27.6765 57.848L29.276 57.8448L30.8637 54.3151Z" fill="#0F1115"/>
<path id="Vector_9" fill-rule="evenodd" clip-rule="evenodd" d="M60.5235 52.5204C61.4463 52.5204 63.024 52.4252 63.7995 52.73C65.6853 53.4701 65.6066 56.0469 63.7291 56.6919C62.8096 57.0079 61.5569 56.8918 60.5235 56.8918V52.522V52.5204ZM59.0178 57.84C60.1969 57.9028 62.9503 57.9335 64.0021 57.74C67.1173 57.1659 67.6181 53.4427 65.1192 52.0237C63.9703 51.3706 61.989 51.5303 60.5252 51.5303L60.5084 47.2733L59.0195 47.2814V57.8416L59.0178 57.84Z" fill="#0F1115"/>
<path id="Vector_10" fill-rule="evenodd" clip-rule="evenodd" d="M39.2162 47.2765C39.0906 48.0344 39.1927 49.8259 39.1927 50.6918C39.1927 51.9512 39.3066 52.6784 40.0653 53.2911C40.8441 53.92 41.5978 54.0635 42.8707 53.9829C44.1117 53.9055 44.6192 53.5443 45.5538 53.1944V57.8512L47.0611 57.8174L47.0494 47.2749L45.5554 47.2782L45.5471 51.8738C45.1937 52.2511 44.2172 52.6735 43.5808 52.8316C42.6563 53.0605 41.772 52.9783 41.2126 52.4671C40.3048 51.6383 40.8743 48.9842 40.6833 47.2749H39.2145L39.2162 47.2765Z" fill="#0F1115"/>
<path id="Vector_11" fill-rule="evenodd" clip-rule="evenodd" d="M67.8057 57.8448L69.3113 57.8496L69.3164 47.4813L69.2896 47.2782L68.7251 47.2636H68.432L67.8057 47.2878V57.8448Z" fill="#0F1115"/>
<path id="Vector_12" fill-rule="evenodd" clip-rule="evenodd" d="M78.0137 45.0223L76.6973 45.0175C76.503 45.2996 76.5667 45.2916 76.2669 45.4561C75.5015 45.8737 74.9069 45.6109 74.448 45.0207L73.1316 45.0175C73.222 46.5155 75.9889 46.8799 77.2081 46.1381C77.5381 45.9366 77.9853 45.5383 78.0137 45.0223Z" fill="#0F1115"/>
<path id="Vector_13" fill-rule="evenodd" clip-rule="evenodd" d="M15.2024 8.47685C19.1266 8.47685 22.3088 11.2648 22.3088 14.7011C22.3088 16.8102 21.1096 18.6742 19.279 19.7997C20.2671 18.7903 20.8785 17.4004 20.8785 15.8653C20.8785 12.7822 18.4148 10.2828 15.375 10.2828C12.3351 10.2828 9.87313 12.7822 9.87313 15.8653C9.87313 17.6374 10.6871 19.216 11.9566 20.2383C9.66545 19.2047 8.09614 17.1133 8.09614 14.7011C8.09614 11.2648 11.2783 8.47685 15.2024 8.47685ZM5.35779 22.4862L7.33744 24.1132L8.60863 20.3593L5.35779 22.4862ZM0 17.6003L6.23372 15.0945L0.199305 14.7043L0 17.6003ZM4.74982 10.3361L8.57514 10.4118L5.17188 7.798L4.74815 10.3344L4.74982 10.3361ZM20.8567 7.55451L24.5782 4.96808L22.5918 3.42815L20.8567 7.55451ZM15.4738 6.94176L17.8571 1.8721L14.5174 1.86404L15.4721 6.94338L15.4738 6.94176ZM7.4731 0.612746L10.5498 6.67893L10.9316 0L7.47477 0.612746H7.4731Z" fill="#0F1115"/>
<path id="Vector_14" fill-rule="evenodd" clip-rule="evenodd" d="M36.5381 28.2315C37.4174 25.3048 37.9567 22.6232 37.7457 20.477C38.5981 20.3819 39.449 20.4238 40.3014 20.5995C40.2579 23.7503 40.7185 26.7464 41.7636 29.5666L41.0987 29.4279L40.834 30.8904L39.9229 29.107L38.2648 28.7136L37.1193 31.4516L37.0171 28.3395C36.8563 28.304 36.6972 28.2669 36.5364 28.2315H36.5381ZM35.4612 23.7761C36.1529 22.6958 36.8798 21.609 37.5715 20.5286C37.6083 20.9801 37.5916 21.4687 37.5664 21.9798L35.4612 23.7761ZM40.5074 22.2588L40.484 20.6447L42.2275 23.373L40.5074 22.2588ZM38.7857 17.9051C37.1745 18.2969 37.7858 20.6334 39.4171 20.219C39.9732 20.0771 40.4756 19.4644 40.2813 18.742C40.1323 18.1889 39.531 17.7229 38.7874 17.9035L38.7857 17.9051Z" fill="#0F1115"/>
<path id="Vector_15" fill-rule="evenodd" clip-rule="evenodd" d="M54.5627 24.6872L54.4421 23.036L56.3464 25.6498L54.5627 24.6872ZM53.3953 21.301C53.799 21.301 54.1256 21.6154 54.1256 22.004C54.1256 22.3926 53.799 22.7071 53.3953 22.7071C52.9917 22.7071 52.6651 22.3926 52.6651 22.004C52.6651 21.6154 52.9917 21.301 53.3953 21.301ZM52.1492 29.1457C52.2883 27.0721 52.4256 24.9984 52.5646 22.9264C53.1391 22.8667 53.7119 22.8828 54.2847 22.9876L54.6632 29.0764L53.4104 26.3787L52.1492 29.1457ZM50.9199 23.9148L52.4155 22.9425L52.3117 24.0341L50.9199 23.9148Z" fill="#0F1115"/>
<path id="Vector_16" fill-rule="evenodd" clip-rule="evenodd" d="M38.2432 33.4979C43.8254 34.7895 58.115 29.6392 70.7265 31.6129C59.3745 27.3688 43.003 33.8671 38.2432 33.4979Z" fill="#0F1115"/>
<path id="Vector_17" fill-rule="evenodd" clip-rule="evenodd" d="M15.1506 28.9006C11.4208 30.0213 9.34566 32.5658 8.55012 36.1391C7.17006 42.3343 9.50812 49.5582 11.3588 55.3342C12.3637 52.493 13.3619 49.7034 14.2563 46.8428H18.4065L10.6303 69H6.57047C7.38444 66.449 8.42451 63.9223 9.29039 61.3874C7.07459 53.9361 1.52253 42.9906 5.30262 35.5586C7.29064 31.7838 10.7341 29.1877 15.149 28.9022L15.1506 28.9006Z" fill="#0F1115"/>
<path id="Vector_18" fill-rule="evenodd" clip-rule="evenodd" d="M68.6982 22.2411C68.854 22.2394 69.1739 22.0008 69.3112 21.9073C69.7685 21.5945 69.5792 21.7605 70.1436 21.6976C70.4518 21.6638 70.5992 21.4816 70.8353 21.3526C71.3947 21.043 71.2222 20.9865 71.4986 19.9465C71.6359 19.424 71.2976 18.7258 71.0815 18.3114C70.9291 18.0163 70.8437 17.6551 70.5741 17.4858C70.2927 17.3085 70.348 17.2536 70.5908 16.7618C70.5975 16.7473 71.1803 16.3007 70.8738 15.646C70.7901 15.4686 70.7298 15.3638 70.6611 15.1251C70.6142 14.9639 70.6963 14.4689 70.1486 14.2028C69.874 14.069 69.6696 14.2109 69.3129 13.9319C69.2241 13.8626 69.2024 13.8352 69.1437 13.7578C68.8607 13.2176 68.71 13.5014 68.3197 13.2047C68.1874 13.1031 68.097 13.0063 67.9245 12.9144C67.7101 12.7999 67.7235 12.7693 67.5125 12.3452C67.2897 11.8953 67.4639 12.0421 67.1792 11.6583C66.8358 11.1939 67.0268 10.9956 66.8375 10.6279C66.2145 9.40726 65.0354 9.79426 64.2482 10.507C63.8396 10.8779 63.2684 10.4747 63.0524 10.9391C63.0239 11.002 63.0088 11.0649 62.9737 11.1423C62.915 11.2713 62.8615 11.4132 62.7827 11.5164C62.4059 12.0114 62.2937 12.0792 61.741 11.9405C61.5584 11.8937 61.3977 11.9082 61.2251 11.8663C60.8785 11.7792 61.1297 11.7373 60.6574 11.5841C60.4011 11.5019 59.9305 11.2084 59.5034 11.5116C59.0093 11.8647 58.7079 11.6389 58.4047 11.955C58.2004 12.1711 58.2121 12.3839 58.0932 12.629C58.0195 12.7822 57.9207 12.9144 57.8504 13.0692C57.5941 13.6368 58.1183 13.6352 58.1033 14.3366C57.7917 14.6075 57.8085 14.5318 57.7365 14.7043C57.6712 14.8607 57.6829 15.1235 57.5841 15.2928C57.2407 15.8733 56.9476 15.7701 56.6797 15.9459C56.0315 16.3732 56.4368 16.7151 55.4336 16.9972C55.0785 17.0972 54.772 16.686 54.5493 17.431C54.3248 18.184 54.3634 18.8419 54.6732 19.4644L54.8524 19.7998C55.1874 20.3351 55.2477 20.2496 55.6329 20.6286L56.0466 20.9946C56.6093 21.4913 56.5674 21.33 57.2725 21.3042C57.4183 21.3348 57.3563 21.4493 57.7867 21.5912C58.3897 21.7896 58.3361 21.5251 59.0127 21.8105C59.15 21.8686 59.1718 21.8444 59.3125 21.8702C59.6123 21.9218 60.1399 22.033 60.3392 22.1782C60.453 22.2604 60.6205 22.3636 60.7378 22.412C60.9304 22.4926 60.8014 22.3846 60.9806 22.5168C61.1782 22.6668 62.6437 22.3297 63.9467 23.1441C65.2246 23.9406 67.3115 22.9344 68.6915 22.2427L68.6982 22.2411ZM62.7543 21.6041C62.7509 21.4671 62.7459 21.3848 62.7409 21.2478C62.4829 21.272 62.23 21.351 61.9939 21.4477C61.9637 21.5461 61.9403 21.5961 61.9403 21.8186C61.9403 21.8186 62.0927 21.8992 62.1279 21.9169C62.1631 21.9347 62.4545 22.0717 62.4545 22.0717C62.5516 22.004 62.6454 21.9782 62.7392 21.8847C62.7476 21.8041 62.7476 21.6831 62.7543 21.6041Z" fill="#0F1115"/>
<path id="Vector_19" fill-rule="evenodd" clip-rule="evenodd" d="M59.1701 20.5866C59.4548 20.585 59.6323 20.6302 59.7613 20.4431C59.9706 20.14 60.0895 19.674 59.9003 19.4144C59.8383 19.3289 59.8015 19.3031 59.7747 19.2999C59.5754 19.2612 59.7311 19.0274 59.4933 19.0225C59.1734 19.0177 59.2019 19.1225 58.9942 19.3047C58.5587 19.3128 58.3728 18.9258 58.0915 19.0016C57.9592 19.037 57.8252 19.1048 57.7213 19.1709C57.522 19.2934 57.527 19.2967 57.3361 19.3128C57.1335 19.3305 56.7985 19.516 56.7617 19.7207C56.698 20.0723 56.0331 20.6689 56.6528 20.8366C56.7466 20.8624 56.8471 20.8656 57.0045 20.8446C57.4299 20.7898 58.0647 20.764 58.4666 20.9059C58.9389 21.0736 58.7547 20.7414 59.1701 20.585V20.5866Z" fill="#0F1115"/>
<path id="Vector_20" fill-rule="evenodd" clip-rule="evenodd" d="M62.1899 12.7064C62.0074 12.7241 61.8516 12.6709 61.7946 12.8515C61.7796 12.8983 61.7645 12.9321 61.7025 13.0079C61.3893 13.3772 61.5551 13.2224 61.8616 13.7948C62.3892 13.8577 62.344 14.0109 62.5081 14.1818C62.7895 14.4753 62.7962 14.4737 63.168 14.6704C63.4963 14.8446 63.7843 14.743 64.0038 14.6188C64.2232 14.4946 64.327 14.5188 64.5615 14.4624L65.2816 14.2931C65.8461 14.1609 65.5278 14.0044 65.8662 13.6433L65.9265 13.5917C66.0822 13.4498 66.0052 13.1273 65.9214 12.9902C65.7908 12.7773 65.4558 12.8902 65.5027 12.6338C65.5245 12.5145 65.6953 12.2275 65.414 12.1952C64.7172 12.1146 65.2013 11.9518 64.2952 11.8792C64.2366 11.7889 64.2248 11.8034 64.1143 11.8002C63.8982 11.7921 63.9686 11.7776 63.7408 11.647C63.5482 11.5357 63.4092 11.6389 63.2434 11.7647C62.9285 12.0034 63.0072 12.1807 62.5081 12.3694C62.1815 12.4935 62.2937 12.3855 62.1916 12.708L62.1899 12.7064Z" fill="#0F1115"/>
<path id="Vector_21" fill-rule="evenodd" clip-rule="evenodd" d="M62.8397 21.4896C62.9117 21.6751 63.0038 22.4781 63.0105 22.678C63.0105 22.6958 63.0105 22.7135 63.0105 22.7345C63.3203 22.8199 63.6419 22.9489 63.9518 23.144C65.0119 23.8052 66.6298 23.2247 67.9379 22.6135C67.9362 22.6071 67.9345 22.6022 67.9328 22.5958C67.8725 22.4265 67.7871 21.7525 67.7704 21.5267C67.7637 21.4251 67.762 21.3058 67.7988 21.2123C67.8792 21.0027 67.9764 21.1575 68.179 20.556C68.3549 20.0352 68.9042 19.9029 69.3832 19.7514C69.6881 19.6449 69.8991 19.8739 69.7316 20.1496L69.3414 20.5705L69.2325 20.6882C69.2174 20.7076 69.2023 20.7237 69.189 20.7366C69.1136 20.8075 69.06 20.8043 68.9545 20.9269C68.9243 20.9623 68.8858 21.0156 68.8557 21.0543C68.6865 21.2607 68.7284 21.2784 68.5877 21.538C68.37 21.9379 68.1874 22.0782 68.437 22.3749C68.5257 22.3313 68.6128 22.2878 68.6966 22.2459C68.8523 22.2443 69.1722 22.0056 69.3095 21.9121C69.7668 21.5993 69.5775 21.7654 70.1419 21.7025C70.4501 21.6686 70.5975 21.4864 70.8336 21.3574C71.393 21.0478 71.2205 20.9914 71.4969 19.9513C71.6342 19.4289 71.2959 18.7307 71.0798 18.3162C70.9274 18.0212 70.842 17.66 70.5724 17.4907C70.291 17.3133 70.3463 17.2585 70.5891 16.7666C70.5958 16.7521 71.1787 16.3055 70.8722 15.6508C70.7884 15.4734 70.7281 15.3686 70.6595 15.13C70.6126 14.9687 70.6946 14.4737 70.147 14.2076C69.9259 14.0996 69.75 14.1705 69.5038 14.0577C69.3531 14.0512 69.2141 14.0206 69.1086 13.9367C69.0198 13.8674 68.998 13.84 68.9394 13.7626C68.5207 13.6868 68.921 13.7223 68.6078 13.5288C68.5391 13.4868 68.3934 13.4707 68.2678 13.4111C67.772 13.1805 68.0233 13.0079 67.6582 13.1547L67.7101 13.0902C67.7804 13.0047 67.623 12.9596 67.5309 12.9144C67.3969 12.8515 67.2261 12.3597 67.139 12.6306C67.1155 12.7048 67.1323 12.729 67.0016 12.7967C66.8274 12.8854 66.8593 12.7774 66.7102 12.9628C66.531 13.1869 66.4707 13.6642 66.7437 13.9142C67.1256 14.2625 67.0468 14.2205 67.1691 14.4818C67.2646 14.6881 67.2495 14.6881 67.1574 14.901C67.0971 15.1042 67.1339 15.1687 66.7537 15.4299C66.5142 15.5944 66.0185 16.4909 67.1289 16.5135C67.4019 16.5199 67.6766 16.5215 67.9496 16.528C68.591 16.5409 68.7033 16.6473 68.7535 16.7586C68.8892 17.0537 69.0617 16.9311 69.1253 17.2939C69.3481 18.5888 68.998 18.3372 68.926 18.7323C68.8305 19.2579 69.0751 19.2321 68.7619 19.6062C68.0316 20.1287 66.4037 21.3768 65.583 20.0884C65.3385 19.7046 65.2313 19.7917 65.037 19.5514C64.8897 19.3692 64.9064 19.1789 64.9215 18.9645C64.9567 18.4743 64.8478 18.5452 64.3872 18.4581C64.2532 18.4469 63.858 18.442 63.7391 18.471C63.6034 18.5049 63.4694 18.621 63.3103 18.6839C62.7191 18.9161 62.7074 19.2854 62.5767 19.574C62.493 19.7578 62.3875 19.6546 62.3925 20.2932C62.3958 20.6334 62.1898 20.7479 62.4494 21.0381C62.5918 21.1962 62.7291 21.2042 62.8413 21.4929L62.8397 21.4896Z" fill="#0F1115"/>
<path id="Vector_22" fill-rule="evenodd" clip-rule="evenodd" d="M62.637 21.6831C62.637 22.1911 62.843 22.0782 62.5416 22.3829C62.5215 22.4023 62.4997 22.4249 62.4746 22.4491C62.3607 22.5458 62.2803 22.5216 62.1279 22.5071C61.8951 22.4829 61.6053 22.4458 61.5266 22.5668C61.7829 23.0876 61.7979 22.7538 61.9286 23.7326C61.9621 23.989 61.952 24.2083 62.009 24.4421L62.3858 25.724C62.5499 26.1529 62.6169 26.7689 62.5265 27.2091C62.4813 27.43 62.3758 27.6671 62.3037 27.8428C62.4126 27.8638 62.6722 27.9638 62.7425 27.9863C62.9368 28.046 62.8682 28.1718 62.9854 28.2137C63.0842 28.2476 63.1947 28.2621 63.2986 28.275C63.5699 28.3088 63.8412 28.2105 64.1343 28.2137C64.1025 28.1476 64.0255 28.0202 64.0037 27.946C63.8295 27.3688 63.8446 25.3467 64.0037 24.9258C64.3303 24.0696 65.7355 23.9487 66.0185 23.394L66.047 23.1989C65.4876 23.2505 65.8962 23.2069 65.3821 23.244C65.2598 23.4504 65.3988 23.3408 65.1459 23.4424C65.0203 23.4553 64.9215 23.5439 64.7959 23.6084C64.5983 23.7068 64.5698 23.6794 64.3621 23.7197C63.8731 23.8148 63.4761 23.6455 63.4627 23.1473C63.4527 22.7828 63.5381 22.2556 63.5314 22.033C63.5264 21.8331 63.4426 21.5654 63.3723 21.38C63.25 21.0623 62.9536 21.172 62.7543 21.2349C62.7342 21.2413 62.7141 21.2478 62.6956 21.2526C62.699 21.2832 62.7023 21.3106 62.7023 21.3332C62.709 21.4719 62.6488 21.4929 62.6354 21.6831H62.637Z" fill="#0F1115"/>
</g>
<defs>
<clipPath id="clip0_214_825">
<rect width="80" height="69" fill="white"/>
</clipPath>
</defs>
</svg>
